<svg width="474.00412" xmlns="http://www.w3.org/2000/svg" height="446.67596" xmlns:xlink="http://www.w3.org/1999/xlink">
<defs>
<linearGradient id="linearGradient3335" xlink:href="#linearGradient4098" y1="Infinity" x1="2.561409" y2="Infinity" x2="2.561407"/>
<linearGradient id="linearGradient3333" xlink:href="#linearGradient4098" y1="Infinity" x1="1.964918" y2="Infinity" x2="1.964916"/>
<linearGradient id="linearGradient3331" xlink:href="#linearGradient4098" y1="Infinity" x1="-1.350871" y2="Infinity" x2="-1.350873"/>
<linearGradient id="linearGradient3329" xlink:href="#linearGradient4098" y1="Infinity" x1="-0.140346" y2="Infinity" x2="-0.140348"/>
<linearGradient id="linearGradient3337" xlink:href="#linearGradient4098" y1="Infinity" x1="1.350883" y2="Infinity" x2="1.350881"/>
<linearGradient id="linearGradient4098">
<stop offset="0" style="stop-color:#ffb142" id="stop4100"/>
<stop offset="1" style="stop-color:#c87600" id="stop4104"/>
</linearGradient>
<linearGradient id="linearGradient3211" xlink:href="#linearGradient4098" y1="0.634575" x1="0.440936" y2="0.634575" x2="0.666877"/>
<linearGradient id="linearGradient3327" xlink:href="#linearGradient4098" y1="Infinity" x1="-0.736836" y2="Infinity" x2="-0.736838"/>
<pattern width="2" height="1" patternTransform="matrix(0, 4.47214, -4.47214, 0, -49.0041, -3.03223e-06)" patternUnits="userSpaceOnUse" id="Strips1_1">
<rect width="1" x="0" y="-0.5" height="2" id="rect3917"/>
</pattern>
</defs>
<g>
<g id="layer1">
<g style="fill-rule:evenodd;stroke-width:4">
<g style="stroke-linejoin:round">
<g style="stroke:#000">
<path style="fill:#0d7014;stroke-linecap:round" id="path3189" d="m 10.7995,444.6293 l 9.8995,-18.3848 c -19.799,-57.9828 0,-95.4594 0,-95.4594 0,0 -9.89949,18.3848 -9.89949,18.3848 0,0 -19.799,37.4767 0,95.4594 z "/>
<path style="fill:#6bdb7e" id="path3187" d="m 10.0041,443.676 h 461 l -131.843,-228.359 h -197.157 l -131.9999,228.359 z "/>
</g>
<path style="fill-opacity:.314" id="path4702" d="m 144,216.3125 l -128.5312,222.375 h 441.531 l -128.375,-222.375 h -184.625 z "/>
</g>
<g style="stroke:#000">
<g style="stroke-linecap:round">
<path style="fill:#fff" id="path3191" d="m 21.6991,426.9516 c -19.799,-57.9827 0,-95.4594 0,-95.4594 l 421.7891,.3536 v 95.1058 h -421.789 z "/>
<path style="opacity:.193;fill:url(#Strips1_1)" id="path4652" d="m 21.6991,426.9516 c -19.799,-57.9827 0,-95.4594 0,-95.4594 l 421.7891,.3536 v 95.1058 h -421.789 z "/>
</g>
<path style="fill:#71ce8b;stroke-linejoin:round" id="path2415" d="m 11.0041,348.626 h 461 l -131.843,-228.359 h -197.157 l -131.9999,228.359 z "/>
</g>
</g>
<g style="stroke-linecap:round">
<path style="fill-opacity:.314;stroke-width:7.77" id="path4721" d="m 430.6625,294.0641 a 165.564,46.5642 0 1,1 -331.128,0 165.564,46.5642 0 1,1 331.128,0 z "/>
<g style="stroke:#000;stroke-linejoin:round;stroke-width:2.869">
<path style="fill:url(#linearGradient3337)" id="path3226" d="m 235.0041,344.1522 a 14.25,23.0238 0 1,1 -28.5,0 14.25,23.0238 0 1,1 28.5,0 z "/>
<path style="fill:url(#linearGradient3335)" id="path3228" d="m 200.5041,344.1522 a 14.25,23.0238 0 1,1 -28.5,0 14.25,23.0238 0 1,1 28.5,0 z "/>
<path style="fill:url(#linearGradient3333)" id="path3230" d="m 217.5041,344.1522 a 14.25,23.0238 0 1,1 -28.5,0 14.25,23.0238 0 1,1 28.5,0 z "/>
<path style="fill:url(#linearGradient3331)" id="path3224" d="m 312.0041,344.1522 a 14.25,23.0238 0 1,1 -28.5,0 14.25,23.0238 0 1,1 28.5,0 z "/>
<path style="fill:url(#linearGradient3329)" id="path3220" d="m 277.5041,344.1522 a 14.25,23.0238 0 1,1 -28.5,0 14.25,23.0238 0 1,1 28.5,0 z "/>
<path style="fill:url(#linearGradient3327)" id="path3222" d="m 294.5041,344.1522 a 14.25,23.0238 0 1,1 -28.5,0 14.25,23.0238 0 1,1 28.5,0 z "/>
</g>
<path style="fill-opacity:.314;stroke-width:6.429" id="path3250" d="m 186.2541,321.125 c -5.8064,0 -10.7803,5.63034 -13,13.6875 18.9711,5.07428 39.8142,8.03415 61.7188,8.4375 -0.29837,-12.2848 -6.54288,-22.125 -14.2188,-22.125 -3.3009,0 -6.3333,1.82748 -8.75,4.875 -2.4167,-3.04752 -5.4491,-4.875 -8.75,-4.875 -3.18578,0 -6.12605,1.70483 -8.5,4.5625 -2.37395,-2.85767 -5.31422,-4.5625 -8.5,-4.5625 z  m 77,0 c -7.65622,0 -13.8907,9.79047 -14.2188,22.0312 21.8806,-0.704346 42.6159,-3.98355 61.4375,-9.34375 -2.34723,-7.51562 -7.15713,-12.6875 -12.7188,-12.6875 -3.3009,0 -6.33331,1.82748 -8.75,4.875 -2.41672,-3.04752 -5.4491,-4.875 -8.75,-4.875 -3.18579,0 -6.12607,1.70483 -8.5,4.5625 -2.37396,-2.85767 -5.31424,-4.5625 -8.5,-4.5625 z "/>
<g style="stroke:#000">
<path style="fill:#784421;stroke-width:5" id="path2385" d="m 405.6625,169.0641 a 165.564,165.564 0 1,1 -331.128,0 165.564,165.564 0 1,1 331.128,0 z "/>
<path style="fill:#fff;stroke-linejoin:round;stroke-width:4.412" id="path3167" d="m 321.9362,250.8462 c -26.5,-4.9236 -2.24737,21.6311 -6.31076,31.2327 -16.0634,-7.89841 -9.94269,18.25 -17.2066,25.5139 -13.7639,-0.736084 -15.9123,13.1433 -25.5139,17.2066 -11.6016,-6.43662 -20.1563,6.31076 -31.2327,6.31076 -11.0764,0 -17.6311,-12.2474 -31.2327,-6.31076 -9.60158,-4.06335 -11.75,-17.4427 -25.5139,-17.2066 -7.26392,-7.26389 -6.14323,-34.9123 -17.2066,-25.5139 -4.06337,-9.60156 14.6892,-38.1562 -6.31074,-31.2327 0,-11.0764 22.2474,-31.6311 6.31074,-31.2327 4.06337,-9.60159 24.4427,-16.75 17.2066,-25.5139 14.5278,-14.5278 34.5938,-23.5174 56.7466,-23.5174 22.1529,0 42.2189,8.98953 56.7467,23.5174 -10.7361,5.26387 13.1433,15.9123 17.2066,25.5139 -17.9366,-0.898422 6.31076,20.1563 6.31076,31.2327 z "/>
</g>
</g>
<g style="stroke-width:5">
<path style="fill-rule:evenodd;fill-opacity:.314" id="path3211" d="m 386.3791,90.5 c 1.98059,10.2325 3.03122,20.7854 3.03122,31.5938 0,3.72989 -0.131744,7.42509 -0.374969,11.0938 -3.67258,-0.182816 -7.57831,0.019043 -11.75,0.625 -35.2154,7.49866 -20.1733,51.6641 -29.3437,97.875 -30.3423,34.3287 -74.7094,55.9688 -124.094,55.9688 -30.3733,0 -58.8316,-8.20725 -83.3125,-22.5 -23.6792,-55.4426 8.0762,-115.665 -33.6563,-126.062 -46.1105,-8.32536 -63.9705,34.4563 -34.1562,98.5625 16.461,35.3942 43.7229,52.7798 63.7813,59.5312 28.3634,22.8004 64.3918,36.4375 103.594,36.4375 45.9495,0 87.5572,-18.7394 117.563,-49 17.4535,-8.71747 36.8615,-24.595 50.3438,-51.1562 25.2124,-49.6709 20.3847,-87.0784 -5.46875,-97.4375 -3.16986,-16.136 -8.66602,-31.4419 -16.1562,-45.5312 z "/>
<g style="stroke:#000">
<g style="fill:#784421;fill-rule:evenodd">
<path id="path3169" d="m 106.7407,131.045 c 48.1112,17.3 -14.1634,94.1427 37.8191,161.192 9.60838,12.3933 -57.868,2.09076 -81.7228,-66.585 -23.1983,-66.7858 -1.13237,-107.539 43.9036,-94.6068 z "/>
<path id="path3800" d="m 373.1833,131.045 c -48.1112,17.3 14.1634,94.1427 -37.8192,161.192 -9.6084,12.3933 57.868,2.09076 81.7228,-66.585 23.1983,-66.7858 1.13232,-107.539 -43.9037,-94.6068 z "/>
<path style="stroke-linejoin:round;stroke-linecap:round" id="path2413" d="m 355.5081,121.9975 c 13.3887,-4.60901 27.221,7.58386 29.8652,14.1799 -13.5123,-3.45227 -19.7196,-4.42578 -23.2184,-1.38071 1.50674,3.37143 17.4083,6.74191 22.3374,28.8712 -12.4288,-8.61664 -22.3036,-18.5756 -26.2725,-14.4832 2.88162,5.03387 6.19952,14.4974 3.96362,23.8808 -7.14154,-9.42444 -14.4388,-19.3785 -21.1415,-19.6478"/>
</g>
<path style="fill:#fff;stroke-linecap:round" id="path2387" d="m 194.1474,40.264 c -31.2345,0 -56.6033,29.3314 -56.6033,65.4717 0,36.1403 25.3689,65.4717 56.6033,65.4717 18.3557,0 34.6444,-10.1409 44.9848,-25.8294 10.3397,15.6999 26.6639,25.8294 45.0273,25.8294 31.2344,0 56.6033,-29.3314 56.6033,-65.4717 0,-36.1403 -25.3689,-65.4717 -56.6033,-65.4717 -18.3613,0 -34.6875,10.1326 -45.0273,25.8295 -10.3406,-15.6852 -26.6314,-25.8295 -44.9848,-25.8295 z "/>
</g>
<path style="fill-rule:evenodd;fill-opacity:.314" id="path3407" d="m 240.8468,151.173 c -9.28799,0 -19.3836,10.3272 -18.9798,16.8497 0.403809,6.52246 16.5569,33.6994 20.1913,33.6994 3.63443,0 17.7683,-26.6334 17.3645,-34.2429 -0.40387,-7.60956 -12.5186,-16.8497 -18.576,-16.3062 z "/>
</g>
<g style="stroke:#000">
<path style="fill:url(#linearGradient3211);fill-rule:evenodd;stroke-width:5" id="path2391" d="m 238.7255,140.5641 c -9.28799,0 -19.3836,9.30621 -18.9798,15.1838 0.403839,5.87762 16.5569,30.3676 20.1913,30.3676 3.63443,0 17.7683,-24.0002 17.3645,-30.8574 -0.403778,-6.85724 -12.5186,-15.1838 -18.5759,-14.694 z "/>
<path style="stroke-linecap:round;stroke-width:3.169" id="path2411" d="m 235.5564,110.1648 a 16.3871,16.3871 0 1,1 -32.7742,0 16.3871,16.3871 0 1,1 32.7742,0 z "/>
<g style="fill-rule:evenodd;stroke-width:5;stroke-linejoin:round">
<path style="fill:#784421;stroke-linecap:round" id="path3193" d="m 124.1476,121.9975 c -13.3887,-4.60901 -27.221,7.58386 -29.8652,14.1799 13.5123,-3.45227 19.7196,-4.42578 23.2184,-1.38071 -1.50674,3.37143 -17.4083,6.74191 -22.3373,28.8712 12.4288,-8.61664 22.3035,-18.5756 26.2724,-14.4832 -2.88158,5.03387 -6.19951,14.4974 -3.96355,23.8808 7.14146,-9.42444 14.4387,-19.3785 21.1415,-19.6478"/>
<g style="fill:#fff">
<path id="path3283" d="m 252.9747,51.2827 c 13.2759,-32.1597 35.6656,-36.5132 35.6656,-36.5132 0,0 -12.4533,16.7753 -1.17395,12.1088 17.4653,-7.22587 72.9967,15.4183 72.9967,15.4183 0,0 -73.5744,-17.126 -107.488,8.98614 z "/>
<path id="path3285" d="m 222.5336,48.2827 c -13.2759,-32.1598 -35.6656,-36.5132 -35.6656,-36.5132 0,0 12.4533,16.7753 1.17398,12.1088 -17.4653,-7.22587 -72.9968,15.4183 -72.9968,15.4183 0,0 73.5744,-17.126 107.488,8.98618 z "/>
</g>
</g>
<path style="stroke-linecap:round;stroke-width:3.169" id="path3301" d="m 277.0564,110.1648 a 16.3871,16.3871 0 1,1 -32.7742,0 16.3871,16.3871 0 1,1 32.7742,0 z "/>
</g>
<g style="stroke-linejoin:round;stroke-width:5;fill:#fff">
<path id="path3341" d="m217.504135,104.425926a4.25,4.25 0 1 1 -8.5,0a4.25,4.25 0 1 1 8.5,0z"/>
<path id="path3343" d="m 259.0041,104.4259 a 4.25,4.25 0 1,1 -8.49999,0 4.25,4.25 0 1,1 8.49999,0 z "/>
</g>
<g style="fill-rule:evenodd">
<g style="fill-opacity:.314">
<g style="stroke-width:5">
<path id="path3200" d="m 388.9416,128.6562 c -0.412628,-0.000595 -0.831665,0.020538 -1.25,0.03125 16.2121,13.0645 23.0733,43.2971 14.7812,85.3438 -11.0231,55.8947 -53.5766,80.008 -67.7188,81.2812 4.5921,6.52643 60.9709,-8.12576 82.3437,-69.6562 20.2986,-58.4375 5.92075,-96.9501 -28.1562,-97 z "/>
<path id="path3205" d="m 55.0666,160.8438 c -3.45179,16.5058 -1.29854,38.6727 7.78125,64.8125 23.8548,68.6758 91.3271,78.987 81.7187,66.5938 -4.10892,-5.29983 -7.5204,-10.6745 -10.3125,-16.0625 -18.9515,-4.54141 -54.0478,-24.3762 -69.9062,-70.0312 -5.87954,-16.9267 -8.85389,-32.1805 -9.28125,-45.3125 z  m 71.2813,6.3438 c -0.882866,8.53607 -1.85622,17.6119 -2.28125,27.125 0.993286,-9.79063 2.07938,-18.9411 2.28125,-27.125 z "/>
</g>
<path style="stroke-linejoin:round;stroke-width:4" id="path3216" d="m 121.9385,390.176 h -56.5 c 0,0 -12.8274,5.53332 10.5784,34.5833 -0.103928,-19.3666 14.8529,-20.75 14.8529,-20.75 0,0 19.6039,19.3667 40.8627,27.6667 -25.5353,-33.2 -7.72942,-39.425 -9.79413,-41.5 z "/>
</g>
<path style="fill:#4b5f91;stroke:#000;stroke-linejoin:round;stroke-width:4" id="path2424" d="m 120.5855,390.676 h -56.5 c 0,0 -17,4 -15.5,25 14.5,-14 30.5,-15 30.5,-15 0,0 5,14 20,20 -0.5,-24 22,-28.5 21.5,-30 z "/>
</g>
</g>
</g>
</svg>
